<svg id="Layer_1" data-name="Layer 1" xmlns="http://www.w3.org/2000/svg" viewBox="0 0 307.62 255.84">
  <title>Создать папку</title>
  <path class="media__svg-icon--border"
        d="M307,253.81V34.08c0-12.23,1-10.87-11.33-10.87H133.39L121.93,5.58C119.28,1.51,119.1,2,114.19,2h-92c-4.44,0-5.07-.76-7.41,3L5.5,19.79c-2.13,3.4-2.15,4.51-2.15,8.54V237.9c0,5.25-.08,6.64,2.82,11l2.55,3.56a2.64,2.64,0,0,0,2.47,1.36Z"
        transform="translate(-1.35 0.01)"/>
  <path class="media__svg-icon--content"
        d="M155.16,85.16a49.54,49.54,0,1,0,49.54,49.54A49.57,49.57,0,0,0,155.16,85.16Zm0,3.42A46.13,46.13,0,1,1,109,134.71,46.1,46.1,0,0,1,155.16,88.58Zm0,13.67a1.71,1.71,0,0,0-1.71,1.71v29h-29a1.71,1.71,0,1,0,0,3.42h29v29a1.71,1.71,0,1,0,3.42,0v-29h29a1.71,1.71,0,1,0,0-3.42h-29V104A1.71,1.71,0,0,0,155.16,102.25Z"
        transform="translate(-1.35 0.01)"/>
</svg>
