<?xml version="1.0" encoding="utf-8"?>
<!-- Generator: Adobe Illustrator 21.0.0, SVG Export Plug-In . SVG Version: 6.00 Build 0)  -->
<svg version="1.1" id="Layer_1" xmlns="http://www.w3.org/2000/svg" xmlns:xlink="http://www.w3.org/1999/xlink" x="0px" y="0px"
	 viewBox="0 0 307.6 255.8" style="enable-background:new 0 0 307.6 255.8;" xml:space="preserve">
<title>Папка с документами</title>
<path class="media__svg-icon--border" d="M305.6,253.8V34.1c0-12.2,1-10.9-11.3-10.9H132L120.6,5.6c-2.6-4.1-2.8-3.5-7.7-3.5h-92c-4.4,0-5.1-0.8-7.4,3
	L4.1,19.8C2,23.2,2,24.3,2,28.3v209.6c0,5.3-0.1,6.6,2.8,11l2.6,3.6c0.5,0.9,1.5,1.4,2.5,1.4L305.6,253.8z"/>
<g>
	<path class="media__svg-icon--content"
		  d="M93.5,85.2h13.6c1.1,0,1.9,0.9,1.9,1.9c0,0,0,0,0,0v79.6h61.3c1.1,0,1.9,0.9,1.9,1.9l0,0v13.6
		c0,1.1-0.9,1.9-1.9,1.9l0,0H93.5c-1.1,0-1.9-0.9-1.9-1.9l0,0V87.1C91.6,86.1,92.4,85.2,93.5,85.2C93.5,85.2,93.5,85.2,93.5,85.2z
		 M105.2,89.1h-9.7v91.3h73v-9.7h-61.4c-1.1,0-1.9-0.9-1.9-1.9l0,0L105.2,89.1z"/>
	<path class="media__svg-icon--content"
		  d="M107.1,71.6H184c1.1,0,1.9,0.9,1.9,1.9c0,0,0,0,0,0v95.2c0,1.1-0.9,1.9-1.9,1.9l0,0h-76.9
		c-1.1,0-1.9-0.9-1.9-1.9l0,0V73.5C105.2,72.4,106,71.6,107.1,71.6C107.1,71.6,107.1,71.6,107.1,71.6z M182,75.5h-73v91.3h73V75.5z"
		/>
	<path class="media__svg-icon--content"
		  d="M200.4,91.2h7.1c3.2,0,5.8,2.6,5.8,5.8v4.9c0,1.1-0.9,1.9-1.9,1.9l0,0h-14.9c-1.1,0-1.9-0.9-1.9-1.9l0,0V97
		C194.6,93.8,197.2,91.2,200.4,91.2L200.4,91.2z M207.6,95.1h-7.1c-1.1,0-1.9,0.9-1.9,1.9v3h11v-3C209.5,96,208.6,95.1,207.6,95.1z"
		/>
	<path class="media__svg-icon--content"
		  d="M194.1,110.9c-1.1,0-1.9,0.9-1.9,1.9c0,1.1,0.9,1.9,1.9,1.9l0,0h19.9c1.1,0,1.9-0.9,1.9-1.9
		c0-1.1-0.9-1.9-1.9-1.9H194.1z"/>
	<path class="media__svg-icon--content"
		  d="M194.1,121.7c-1.1,0-1.9,0.9-1.9,1.9c0,1.1,0.9,1.9,1.9,1.9l0,0h19.9c1.1,0,1.9-0.9,1.9-1.9
		c0-1.1-0.9-1.9-1.9-1.9H194.1z"/>
	<path class="media__svg-icon--content"
		  d="M194,100H214c1.1,0,1.9,0.9,1.9,1.9l0,0v62.5c0,0.4-0.1,0.8-0.3,1.1l-9.6,15.9l0,0c-0.5,0.9-1.7,1.2-2.7,0.7
		c-0.3-0.2-0.5-0.4-0.7-0.7l-10.2-15.9l0,0c-0.2-0.3-0.3-0.7-0.3-1.1V102C192.1,100.9,193,100,194,100z M212,103.9h-16v60l8.3,12.9
		l7.7-12.9L212,103.9z"/>
	<path class="media__svg-icon--content"
		  d="M194,162.6c-1.1,0-1.9,0.9-1.9,1.9c0,1.1,0.9,1.9,1.9,1.9H214c1.1,0,1.9-0.9,1.9-1.9c0-1.1-0.9-1.9-1.9-1.9
		l0,0H194z"/>
	<path class="media__svg-icon--content"
		  d="M118.8,87.4c-1.1,0-1.9,0.9-1.9,1.9s0.9,1.9,1.9,1.9h53.5c1.1,0,1.9-0.9,1.9-1.9s-0.9-1.9-1.9-1.9H118.8z"/>
	<path class="media__svg-icon--content"
		  d="M118.8,100.1c-1.1,0-1.9,0.9-1.9,1.9c0,1.1,0.9,1.9,1.9,1.9h53.5c1.1,0,1.9-0.9,1.9-1.9c0-1.1-0.9-1.9-1.9-1.9
		H118.8z"/>
	<path class="media__svg-icon--content"
		  d="M118.8,112.8c-1.1,0-1.9,0.9-1.9,1.9c0,1.1,0.9,1.9,1.9,1.9h53.5c1.1,0,1.9-0.9,1.9-1.9c0-1.1-0.9-1.9-1.9-1.9
		H118.8z"/>
	<path class="media__svg-icon--content"
		  d="M118.8,138.2c-1.1,0-1.9,0.9-1.9,1.9c0,1.1,0.9,1.9,1.9,1.9h53.5c1.1,0,1.9-0.9,1.9-1.9c0-1.1-0.9-1.9-1.9-1.9
		H118.8z"/>
	<path class="media__svg-icon--content"
		  d="M118.8,150.9c-1.1,0-1.9,0.9-1.9,1.9s0.9,1.9,1.9,1.9h53.5c1.1,0,1.9-0.9,1.9-1.9s-0.9-1.9-1.9-1.9H118.8z"/>
	<path class="media__svg-icon--content"
		  d="M122.3,125.5c-1.1,0-1.9,0.9-1.9,1.9c0,1.1,0.9,1.9,1.9,1.9h17.8c1.1,0,1.9-0.9,1.9-1.9c0-1.1-0.9-1.9-1.9-1.9
		l0,0H122.3z"/>
	<path class="media__svg-icon--content"
		  d="M151,125.5c-1.1,0-1.9,0.9-1.9,1.9c0,1.1,0.9,1.9,1.9,1.9h17.8c1.1,0,1.9-0.9,1.9-1.9c0-1.1-0.9-1.9-1.9-1.9
		H151z"/>
</g>
</svg>
