<svg id="Layer_1" data-name="Layer 1" xmlns="http://www.w3.org/2000/svg" viewBox="0 0 307.62 255.84">
  <title>Папка с изображениями</title>
  <path class="media__svg-icon--border"
          d="M305.57,253.81V34.08c0-12.23,1-10.87-11.33-10.87H132L120.55,5.58C117.9,1.51,117.72,2,112.81,2h-92c-4.44,0-5.07-.76-7.41,3L4.12,19.79C2,23.19,2,24.3,2,28.33V237.9c0,5.25-.08,6.64,2.82,11l2.55,3.56a2.64,2.64,0,0,0,2.47,1.36Z"
        transform="translate(0.03 0.01)"/>
  <path class="media__svg-icon--content"
          d="M83.48,85.18v99.06H224.09V85.18H83.48Zm3.2,3.2H220.89v68.56l-29.36-23.47a1.6,1.6,0,0,0-1.9-.1L165,150.29l-32.61-26.41a1.51,1.51,0,0,0-1.9-.1L86.67,154V88.37ZM165,101.15a11.18,11.18,0,1,0,11.18,11.18A11.21,11.21,0,0,0,165,101.15Zm-.8,3.2a7.82,7.82,0,0,1,.8,0,7.6,7.6,0,1,1-.8,0Zm-32.81,22.72L164,153.48a1.6,1.6,0,0,0,1.9.1l24.57-16.88L220.89,161v20H86.67V157.88l44.69-30.81Z"
        transform="translate(0.03 0.01)"/>
</svg>
