<?xml version="1.0" encoding="utf-8"?>
<!-- Generator: Adobe Illustrator 21.0.0, SVG Export Plug-In . SVG Version: 6.00 Build 0)  -->
<svg version="1.1" id="Layer_1" xmlns="http://www.w3.org/2000/svg" xmlns:xlink="http://www.w3.org/1999/xlink" x="0px" y="0px"
	 viewBox="0 0 28 45" style="enable-background:new 0 0 28 45;" xml:space="preserve">
<style type="text/css">
	.st0{fill:#04859D;}
	.st1{fill:none;enable-background:new    ;}
	.st2{fill:#FFFFFF;}
</style>
<path class="st0" d="M13.9,0.4c7.3,0,13.2,5.7,13.2,13.2c0,1.7-0.5,4.3-1,5.8c-4.2,8.9-8.5,18-12.2,25.6c-4-8.6-8.3-17.3-12.2-25.6
	c-0.5-1.5-1-4.2-1-5.8C0.7,6,6.5,0.4,13.9,0.4L13.9,0.4z"/>
<path class="st1" d="z"/>
<g>
	<path class="st2" d="M13.9,24.6c-6.1,0-11.1-5-11.1-11.1s5-11.1,11.1-11.1S25,7.5,25,13.6S20,24.6,13.9,24.6z M13.9,4
		c-5.3,0-9.6,4.3-9.6,9.6s4.3,9.6,9.6,9.6s9.6-4.3,9.6-9.6S19.2,4,13.9,4z"/>
</g>
<circle class="st2" cx="13.9" cy="13.6" r="4.6"/>
</svg>
