<svg xmlns="http://www.w3.org/2000/svg" width="9.62" height="16" viewBox="0 0 9.62 16">
  <metadata><?xpacket begin="﻿" id="W5M0MpCehiHzreSzNTczkc9d"?>
<x:xmpmeta xmlns:x="adobe:ns:meta/" x:xmptk="Adobe XMP Core 5.6-c138 79.159824, 2016/09/14-01:09:01        ">
   <rdf:RDF xmlns:rdf="http://www.w3.org/1999/02/22-rdf-syntax-ns#">
      <rdf:Description rdf:about=""/>
   </rdf:RDF>
</x:xmpmeta>
                                                                                                    
                                                                                                    
                                                                                                    
                                                                                                    
                                                                                                    
                                                                                                    
                                                                                                    
                                                                                                    
                                                                                                    
                                                                                                    
                                                                                                    
                                                                                                    
                                                                                                    
                                                                                                    
                                                                                                    
                                                                                                    
                                                                                                    
                                                                                                    
                                                                                                    
                                                                                                    
                           
<?xpacket end="w"?></metadata>
<defs>
    <style>
      .cls-1 {
        fill: #fff;
        fill-rule: evenodd;
      }
    </style>
  </defs>
  <path id="odnoklassniki" class="cls-1" d="M1289.77,19.339a4.055,4.055,0,1,0-6.92,2.857,4.055,4.055,0,0,0,6.92-2.857h0Zm-2.06,0a2.006,2.006,0,1,1-.59-1.415,1.921,1.921,0,0,1,.59,1.415h0Zm2.42,4.223a0.973,0.973,0,0,0-.37-0.2,0.907,0.907,0,0,0-.5.018,1.726,1.726,0,0,0-.58.313l-0.34.223a4.3,4.3,0,0,1-1.07.451,5.291,5.291,0,0,1-1.56.228,5.167,5.167,0,0,1-1-.1,5.836,5.836,0,0,1-.83-0.214,4.552,4.552,0,0,1-.61-0.272,4.4,4.4,0,0,1-.39-0.219c-0.06-.041-0.1-0.074-0.13-0.1a1.726,1.726,0,0,0-.58-0.312,0.907,0.907,0,0,0-.5-0.018,1.1,1.1,0,0,0-.38.2,1.082,1.082,0,0,0-.25.313,1.417,1.417,0,0,0-.13.442,0.847,0.847,0,0,0,.04.362,1.025,1.025,0,0,0,.24.344,2.718,2.718,0,0,0,.38.33c0.13,0.1.31,0.222,0.55,0.37a6.459,6.459,0,0,0,2.83.839l-0.65.643-2.38,2.384a0.923,0.923,0,0,0-.28.661,0.893,0.893,0,0,0,.28.652l0.11,0.116a0.879,0.879,0,0,0,.65.268,0.935,0.935,0,0,0,.66-0.268l2.38-2.393c1.19,1.19,1.99,1.988,2.39,2.393a0.9,0.9,0,0,0,.66.268,0.935,0.935,0,0,0,.66-0.268l0.11-.116a0.915,0.915,0,0,0,.26-0.652,0.946,0.946,0,0,0-.26-0.661l-2.39-2.384-0.65-.643a6.494,6.494,0,0,0,2.81-.839c0.23-.149.42-0.272,0.55-0.37a2.718,2.718,0,0,0,.38-0.33,1.025,1.025,0,0,0,.24-0.344,0.847,0.847,0,0,0,.04-0.362,1.225,1.225,0,0,0-.14-0.442A0.937,0.937,0,0,0,1290.13,23.563Z" transform="translate(-1280.91 -15.281)"/>
</svg>
