<svg xmlns="http://www.w3.org/2000/svg" width="25.454" height="35" viewBox="0 0 24 33">
  <metadata><?xpacket begin="﻿" id="W5M0MpCehiHzreSzNTczkc9d"?>
<x:xmpmeta xmlns:x="adobe:ns:meta/" x:xmptk="Adobe XMP Core 5.6-c138 79.159824, 2016/09/14-01:09:01        ">
   <rdf:RDF xmlns:rdf="http://www.w3.org/1999/02/22-rdf-syntax-ns#">
      <rdf:Description rdf:about=""/>
   </rdf:RDF>
</x:xmpmeta>
                                                                                                    
                                                                                                    
                                                                                                    
                                                                                                    
                                                                                                    
                                                                                                    
                                                                                                    
                                                                                                    
                                                                                                    
                                                                                                    
                                                                                                    
                                                                                                    
                                                                                                    
                                                                                                    
                                                                                                    
                                                                                                    
                                                                                                    
                                                                                                    
                                                                                                    
                                                                                                    
                           
<?xpacket end="w"?></metadata>
<defs>
    <style>
      .cls-1 {
        fill: #04859d;
        fill-rule: evenodd;
      }
    </style>
  </defs>
  <path class="cls-1" d="M142,429v33h24V429H142Zm4.258,3.143h15.484a0.786,0.786,0,0,1,0,1.571H146.258A0.786,0.786,0,0,1,146.258,432.143Zm0,3.536h15.484a0.786,0.786,0,0,1,0,1.571H146.258A0.786,0.786,0,0,1,146.258,435.679Zm0,3.535h15.484a0.786,0.786,0,0,1,0,1.572H146.258A0.786,0.786,0,0,1,146.258,439.214ZM154,443.929a4.321,4.321,0,1,1-4.258,4.321A4.289,4.289,0,0,1,154,443.929Zm-2.71,8.618a4.938,4.938,0,0,0,5.42,0v5.524L154,455.714l-2.71,2.357v-5.524Z" transform="translate(-142 -429)"/>
</svg>
