<svg id="Layer_1" data-name="Layer 1" width="15.44" height="15.438" xmlns="http://www.w3.org/2000/svg"
     viewBox="0 0 90 90">
  <title>insta2</title>
  <path d="M79.57,5H20.43A15.43,15.43,0,0,0,5,20.43V79.57A15.43,15.43,0,0,0,20.43,95H79.57A15.43,15.43,0,0,0,95,79.57V20.43A15.43,15.43,0,0,0,79.57,5ZM36,42.2h0l0,0c.18-.32.37-.63.57-.94s.24-.35.37-.53l.43-.57c.13-.16.25-.32.38-.48s.51-.58.78-.86l.41-.4.6-.54.41-.35c.32-.26.65-.5,1-.73l.38-.24q.4-.26.81-.5l.4-.22c.38-.2.78-.4,1.18-.57l.28-.11q.52-.21,1-.38l.38-.12c.44-.13.89-.25,1.34-.35l.15,0c.42-.08.85-.15,1.27-.19l.38,0c.48,0,1-.07,1.46-.07s1,0,1.46.07l.38,0c.43,0,.86.11,1.28.19l.15,0c.46.09.9.21,1.34.35l.38.12q.53.18,1.05.38l.28.11c.4.17.79.36,1.18.57l.4.22c.28.16.55.33.82.5l.37.24c.34.23.67.48,1,.74l.4.35.61.55.4.39c.27.28.54.57.79.87s.25.31.37.47l.44.59c.12.17.25.34.36.52A16.07,16.07,0,1,1,36,42.2Zm49.4,32.58A11.31,11.31,0,0,1,74,86.09H26A11.31,11.31,0,0,1,14.64,74.77V42.2H25.5a25.71,25.71,0,1,0,49,0H85.36Zm0-51.78a1.29,1.29,0,0,1-1.29,1.29H77A1.29,1.29,0,0,1,75.71,23V15.93A1.29,1.29,0,0,1,77,14.64h7.07a1.29,1.29,0,0,1,1.29,1.29Z"
        transform="translate(-5 -5)" style="fill:#fff"/>
</svg>
