<svg xmlns="http://www.w3.org/2000/svg" width="23.086" height="35.293" viewBox="0 0 24.406 37.312">
  <metadata><?xpacket begin="﻿" id="W5M0MpCehiHzreSzNTczkc9d"?>
<x:xmpmeta xmlns:x="adobe:ns:meta/" x:xmptk="Adobe XMP Core 5.6-c138 79.159824, 2016/09/14-01:09:01        ">
   <rdf:RDF xmlns:rdf="http://www.w3.org/1999/02/22-rdf-syntax-ns#">
      <rdf:Description rdf:about=""/>
   </rdf:RDF>
</x:xmpmeta>
                                                                                                    
                                                                                                    
                                                                                                    
                                                                                                    
                                                                                                    
                                                                                                    
                                                                                                    
                                                                                                    
                                                                                                    
                                                                                                    
                                                                                                    
                                                                                                    
                                                                                                    
                                                                                                    
                                                                                                    
                                                                                                    
                                                                                                    
                                                                                                    
                                                                                                    
                                                                                                    
                           
<?xpacket end="w"?></metadata>
<defs>
    <style>
      .cls-1 {
        fill: #04859d;
        fill-rule: evenodd;
      }
    </style>
  </defs>
  <path class="cls-1" d="M149.311,354.8a1.173,1.173,0,0,1,1.572.582l3.753,8.2a1.211,1.211,0,0,1-.572,1.6l-2.148,1.02a1.172,1.172,0,0,1-1.571-.582l-3.753-8.2a1.211,1.211,0,0,1,.572-1.6l2.147-1.02h0Zm11.256,24.586a1.172,1.172,0,0,1,1.571.582l3.753,8.2a1.211,1.211,0,0,1-.572,1.6l-2.147,1.02a1.173,1.173,0,0,1-1.572-.582l-3.753-8.2a1.211,1.211,0,0,1,.572-1.6l2.148-1.02h0ZM148.96,366.942l0.029-.014a1.216,1.216,0,0,0,.569-1.6l-3.252-7.1a1.175,1.175,0,0,0-1.576-.582l-0.03.014a5.525,5.525,0,0,0-2.956,4.1c-0.9,8.169,2.447,15.385,2.966,16.519s3.795,8.384,10.517,12.932a5.357,5.357,0,0,0,4.985.33l0.03-.014a1.214,1.214,0,0,0,.575-1.6l-3.252-7.1a1.174,1.174,0,0,0-1.569-.585l-0.029.014c-1.888.9-5.642-4.919-6.288-6.331s-2.608-8.079-.719-8.976h0Z" transform="translate(-141.594 -354.688)"/>
</svg>
