<svg id="Layer_1" data-name="Layer 1" xmlns="http://www.w3.org/2000/svg" viewBox="0 0 307.62 255.84">
  <title>Загрузить файл</title>
  <path class="media__svg-icon--border"
        d="M307,253.81V34.08c0-12.23,1-10.87-11.33-10.87H133.39L121.93,5.58C119.28,1.51,119.1,2,114.19,2h-92c-4.44,0-5.07-.76-7.41,3L5.5,19.79c-2.13,3.4-2.15,4.51-2.15,8.54V237.9c0,5.25-.08,6.64,2.82,11l2.55,3.56a2.64,2.64,0,0,0,2.47,1.36Z"
        transform="translate(-1.35 0.01)"/>
  <path class="media__svg-icon--content"
        d="M155.16,158.91a.65.65,0,0,1-.65-.65V87.61a.65.65,0,0,1,1.31,0v70.64A.65.65,0,0,1,155.16,158.91Z"
        transform="translate(-1.35 0.01)"/>
  <path class="media__svg-icon--content"
        d="M155.16,160.41a2.16,2.16,0,0,1-2.15-2.15V87.61a2.15,2.15,0,0,1,4.31,0v70.64A2.16,2.16,0,0,1,155.16,160.41Z"
        transform="translate(-1.35 0.01)"/>
  <path class="media__svg-icon--content"
        d="M155.16,158.91a.66.66,0,0,1-.46-.19l-23.55-23.55a.65.65,0,0,1,.92-.92l23.09,23.08,23.08-23.08a.65.65,0,0,1,.92.92l-23.55,23.55A.65.65,0,0,1,155.16,158.91Z"
        transform="translate(-1.35 0.01)"/>
  <path class="media__svg-icon--content"
        d="M155.16,160.41a2.15,2.15,0,0,1-1.52-.62l-23.55-23.55a2.15,2.15,0,0,1,0-3,2.21,2.21,0,0,1,3,0l22,22,22-22a2.14,2.14,0,0,1,1.52-.63h0a2.15,2.15,0,0,1,1.53,3.68l-23.55,23.55A2.14,2.14,0,0,1,155.16,160.41ZM131,135.31h0Zm48.29,0h0Z"
        transform="translate(-1.35 0.01)"/>
  <path class="media__svg-icon--content"
        d="M202.26,182.46H108.07a.65.65,0,0,1-.65-.65V158.26a.65.65,0,1,1,1.31,0v22.89H201.6V158.26a.65.65,0,0,1,1.31,0V181.8A.65.65,0,0,1,202.26,182.46Z"
        transform="translate(-1.35 0.01)"/>
  <path class="media__svg-icon--content"
        d="M202.26,184H108.07a2.16,2.16,0,0,1-2.15-2.15V158.26a2.15,2.15,0,1,1,4.31,0v21.39H200.1V158.26a2.15,2.15,0,1,1,4.31,0V181.8A2.16,2.16,0,0,1,202.26,184Z"
        transform="translate(-1.35 0.01)"/>
</svg>
